<?xml version="1.0" encoding="utf-8"?>
<!-- Generator: Adobe Illustrator 25.2.1, SVG Export Plug-In . SVG Version: 6.00 Build 0)  -->
<svg version="1.1" id="Layer_1" xmlns="http://www.w3.org/2000/svg" xmlns:xlink="http://www.w3.org/1999/xlink" x="0px" y="0px"
	 viewBox="0 0 256 256" style="enable-background:new 0 0 256 256;" xml:space="preserve">
<style type="text/css">
	.st0{fill:#FFFFFF;}
	.st1{fill:#64C9E6;}
	.st2{fill:#2B388D;}
	.st3{fill:#090047;}
</style>
<g>
	<rect x="0" y="0" class="st0" width="256" height="256"/>
	<g>
		<g>
			<path class="st1" d="M20.26,188.29l-2.18-4.15c-19.83-37.73-18.36-83.11,3.87-119.48l2.33-3.81
				C47.02,23.64,88.02,1.53,131.61,2.97l0.94,0.03c43.53,1.44,82.93,26.15,103.19,64.7l2.18,4.15
				c19.83,37.73,18.36,83.11-3.87,119.48l-2.33,3.81c-22.74,37.21-63.74,59.32-107.33,57.88l-0.94-0.03
				C79.92,251.55,40.52,226.85,20.26,188.29z"/>
			<path class="st2" d="M124.66,243.9l-0.87-0.03c-40.35-1.34-76.88-24.24-95.66-59.98l-2.02-3.85C7.72,145.07,9.09,103,29.69,69.29
				l2.16-3.53c21.08-34.5,59.09-54.99,99.49-53.66l0.87,0.03c40.35,1.34,76.88,24.24,95.66,59.98l2.02,3.85
				c18.38,34.98,17.02,77.04-3.59,110.75l-2.16,3.53C203.07,224.74,165.06,245.23,124.66,243.9z"/>
		</g>
		<g>
			<path class="st1" d="M125.69,103.8c1.38,0.87,2.36,1.49,3.31,2.09c1.31-0.81,2.73-1.7,4.16-2.58c0.17,0.09,0.34,0.17,0.52,0.26
				c0,0.88,0.01,1.76,0,2.63c-0.29,16.66-0.64,33.31-0.85,49.97c-0.1,7.57,0.28,15.14,0.04,22.7c-0.09,2.93-1.31,5.82-1.93,8.75
				c-0.87,4.09-1.64,8.2-2.5,12.3c-0.3,1.42-0.75,2.81-1.14,4.22c-0.17,0-0.33,0.01-0.5,0.01c-0.36-2.12-1.05-4.23-1.02-6.35
				c0.18-15.81,0.6-31.62,0.75-47.43c0.13-12.92,0.01-25.83-0.05-38.75c-0.01-1.68-0.38-3.36-0.56-5.05
				C125.84,105.81,125.8,105.04,125.69,103.8z"/>
			<path class="st1" d="M139.03,149.59c1.29,4.13,2.38,8.29,1.56,12.52c-0.63,3.25-2.94,5.78-5.07,8.45
				c-0.49,1.96-1.04,4.17-1.7,6.79c-0.2-0.53-0.29-0.65-0.29-0.77c0.07-18.12,0.14-36.24,0.25-54.36c0.01-2.46,0.11-2.46,2.04-4.06
				c-0.6,0.11-1.12,0.21-1.8,0.34c-0.06-0.38-0.17-0.69-0.16-1c0.13-4.23,0.32-8.46,0.39-12.69c0.02-1.38,0.53-2.18,2.05-2.51
				c1.48-0.32,2.9-0.82,4.53-1.3c0,2.54,0.04,4.88-0.01,7.22c-0.06,3.5-0.25,7-0.25,10.49c0,2.01-0.06,3.95-1.94,5.72
				c0.9-0.07,1.46-0.11,1.93-0.14c0,3.58-0.08,7.16,0.03,10.74c0.1,3.44,0.51,6.87,0.53,10.31c0.01,1.38-0.65,2.76-1.06,4.12
				C140.07,149.57,139.56,149.54,139.03,149.59z"/>
			<path class="st1" d="M123.86,149.6c-1.34-2.27-2.7-4.47-3.91-6.73c-0.36-0.67-0.44-1.52-0.43-2.28
				c0.14-7.79,0.4-15.57,0.44-23.36c0.01-1.82,0.06-3.25,2.38-3.61c0.11-0.02,0.21-0.11,0.3-0.19c0.08-0.08,0.13-0.18,0.21-0.3
				c-0.98,0-1.94,0-2.98,0c-0.34-3.68-0.68-7.29-1.04-11.13c1.93,0.54,3.7,0.97,5.39,1.57c0.39,0.14,0.72,0.88,0.76,1.36
				c0.16,2.36,0.14,4.73,0.32,7.08c0.22,2.79,0.59,5.57,0.86,8.36c0.17,1.84-0.42,3.42-2.09,4.64c0.52-0.17,1.04-0.34,1.79-0.58
				c0.43,2.13,0.84,4.06-1.67,5.8c0.9-0.14,1.32-0.2,2.1-0.32c-0.31,18.7-0.61,37.25-0.91,55.79c-0.08,0-0.15,0-0.23,0
				c-0.09-1.46-0.3-2.92-0.25-4.38c0.07-2.65-1.64-4.34-3.7-5.69c-1.29-0.84-1.73-1.79-1.7-3.12c0.09-3.44,0.21-6.89,0.21-10.33
				c0-3.1-0.14-6.21-0.22-9.31c-0.06-2.26,0.86-3.16,3.38-3.33C123.21,149.53,123.56,149.58,123.86,149.6z"/>
			<path class="st3" d="M129.47,90.52c5.99,3.33,12.38,2.99,18.76,2.5c1.88-0.14,3.08,0.24,3.6,1.97c0.08,0.26,0.29,0.48,0.48,0.76
				c0.08-0.16,0.17-0.26,0.15-0.33c-0.69-2.52-0.7-2.58,2.22-2.87c1.84-0.18,3.73,0.01,5.56-0.21c1.13-0.14,2.2-0.77,3.29-1.17
				c1.1-0.4,1.78,0.09,1.77,1.03c-0.02,1.49-0.29,2.97-0.83,4.5c0.31-0.34,0.63-0.67,1.19-1.28c0.05,0.82,0.12,1.31,0.11,1.79
				c-0.03,1.78-0.42,1.99-2.3,1.93c-5.64-0.17-11.29-0.43-16.93-0.32c-6.06,0.11-11.59,2.15-17.06,4.8
				C129.47,99.31,129.47,95.07,129.47,90.52z"/>
			<path class="st3" d="M104.76,99.52c-0.14-0.7-0.26-1.3-0.36-1.81c-3.52-0.56-2.09-3.53-3.58-5.32c1.1,0,1.83-0.09,2.53,0.01
				c4.64,0.66,9.3,0.15,13.94,0.08c1.88-0.03,2.9,0.38,3.3,2.03c0.06,0.24,0.26,0.46,0.62,0.61c-0.18-0.85-0.35-1.7-0.54-2.63
				c2.66-0.45,5.21-0.87,7.85-1.31c0,4.01,0,8.26,0,12.57C121.03,100.44,113.14,99.24,104.76,99.52z"/>
			<path class="st1" d="M139.02,188.59c0.34,0.88,0.87,1.6,0.84,2.29c-0.11,2.4-0.5,4.78-0.64,7.18c-0.14,2.29-0.09,4.58-0.15,6.87
				c-0.01,0.44,0.02,1.13-0.25,1.27c-2.33,1.25-2.37,3.72-3.62,5.54c-0.57,0.84-1.12,1.69-2.06,2.46c0-0.63,0-1.27,0-1.9
				c0.03-5.92-0.14-11.84,0.18-17.74c0.22-4.07,1.03-8.12,1.8-12.14c0.55-2.88,1.33-5.73,2.24-8.53c0.36-1.12,1.39-2.05,2.03-3.11
				c0.7-1.17,1.28-2.39,2.1-3.55C140.6,174.44,141.45,181.82,139.02,188.59z"/>
			<path class="st1" d="M117.47,225.83c-0.21-6.46-0.47-12.92-0.56-19.38c-0.01-0.83,0.9-1.66,1.48-2.68
				c-2.26-0.64-1.56-2.59-1.59-4.33c-0.07-4.4-0.19-8.8-0.25-13.19c-0.04-2.87-0.01-5.74-0.01-8.95c2.2,1.16,3.54,2.19,3.5,4.33
				c-0.03,1.96,0.3,3.93,0.46,5.9c0.02,0.27,0.08,0.6-0.05,0.82c-1.79,3.02-0.68,5.94,0.21,8.93c1.78,6.02,3.72,12.04,2.93,18.41
				c-0.04,0.31-0.16,0.71-0.4,0.89c-3.14,2.41-4.25,5.8-5.23,9.25C117.8,225.83,117.63,225.83,117.47,225.83z"/>
			<path class="st3" d="M128.51,20.14c5.14-0.02,8.9,3.35,8.94,8.02c0.05,4.99-3.92,8.97-8.85,9.06c-3.77,0.07-9.29-3.91-9.15-8.38
				C119.63,23.67,123.08,20.16,128.51,20.14z M128.65,23.46c-3.18-0.01-5.62,2.09-5.64,4.85c-0.02,2.75,2.46,5.05,5.47,5.07
				c3.06,0.02,5.55-2.32,5.52-5.2C133.99,25.52,131.66,23.47,128.65,23.46z"/>
			<path class="st3" d="M132.75,49.05c0.1,1.02,0.15,2.04,0.31,3.04c0.04,0.27,0.58,0.49,0.6,0.75c0.22,2.4,0.38,4.81,0.56,7.34
				c-3.13-0.73-6.04-1.37-8.91-2.13c-0.38-0.1-0.81-0.79-0.81-1.2c0.01-1.06,0.25-2.12,0.44-3.42c1.8-0.26,3.71-0.53,5.62-0.8
				c0-0.04,0-0.07,0-0.11c-1.99,0.12-3.97,0.24-6.25,0.38c0.17-2.58,0.33-4.97,0.49-7.53c2.74,1.27,5.37,2.49,8,3.71L132.75,49.05z"
				/>
			<path class="st3" d="M136,80.86c-3.93-1.59-7.56-3.03-11.15-4.55c-0.37-0.16-0.7-0.75-0.73-1.16c-0.09-1.28-0.04-2.58-0.04-4.1
				c3.51,0.54,6.79,1.03,10.06,1.57c0.3,0.05,0.71,0.47,0.76,0.76C135.29,75.76,135.61,78.15,136,80.86z"/>
			<path class="st3" d="M136.43,81.63c-4.75,2.35-8.99,4.45-13.51,6.68c0.51-3.84,1-7.52,1.54-11.54
				C128.28,78.32,132.08,79.87,136.43,81.63z"/>
			<path class="st3" d="M133.79,91.32c-1.64-0.46-3.27-0.92-4.62-1.3c-2.08,0.59-4.09,1.17-6.33,1.81
				c-0.19-1.91,0.15-2.91,1.76-3.66c3.76-1.73,7.42-3.67,11.29-5.61c0.39,2.03,0.8,3.93,1.07,5.86c0.05,0.35-0.47,0.84-0.83,1.16
				c-0.69,0.61-1.46,1.14-2.19,1.71L133.79,91.32z"/>
			<path class="st3" d="M135.05,72.35c-3.12-0.54-5.86-0.99-8.59-1.5c-0.81-0.15-2.22-0.42-2.24-0.72c-0.11-1.2,0.19-2.43,0.39-3.65
				c0.02-0.14,0.36-0.3,0.57-0.35c2.14-0.45,4.27-1.01,6.44-1.27c1.68-0.21,3,0.38,3.07,2.26
				C134.75,68.74,134.91,70.34,135.05,72.35z"/>
			<path class="st3" d="M124.21,44.71c0.18-2.69,0.35-5.14,0.52-7.75c2.83,0.98,5.68,0.87,8.58-0.39c0.07,0.78,0.12,1.33,0.16,1.88
				c0.38,5.14,1.25,4.24-4.6,5.47C127.4,44.23,125.88,44.43,124.21,44.71z"/>
			<path class="st3" d="M124.09,65.75c0.3-2.52,0.56-4.77,0.86-7.28c2.78,0.67,5.54,1.26,8.24,2.04c0.5,0.15,1.01,1.07,1.02,1.63
				c0,0.57-0.5,1.54-0.98,1.66C130.3,64.54,127.32,65.08,124.09,65.75z"/>
			<path class="st1" d="M122.18,237.14c0.1-6.1-2.44-12.03,2.38-17.65c0.17,3.23,0.1,6.02,0.5,8.76
				C125.55,231.53,123.79,234.04,122.18,237.14z"/>
			<path class="st1" d="M130.57,216.72c0-2.6,0.3-5.15-0.08-7.61c-0.45-2.92,0.39-5.54,1.24-8.22c0.13-0.4,0.35-0.78,0.99-1.2
				c0.17,0.52,0.5,1.04,0.48,1.55c-0.18,4.5-0.41,8.99-0.64,13.48C132.5,215.75,132.12,216.57,130.57,216.72z"/>
			<path class="st1" d="M126.69,211.21c2.46,6.23,2.41,10.11-1.36,18.55c0-3.11-0.18-6.24,0.05-9.34
				C125.6,217.36,126.23,214.32,126.69,211.21z"/>
			<path class="st3" d="M132.81,49.09c-2.3-1.28-4.61-2.55-7.36-4.08c2.76-0.51,5.08-0.93,7.94-1.46c0,1.85,0.02,3.45-0.03,5.05
				c0,0.15-0.4,0.3-0.62,0.45C132.75,49.05,132.81,49.09,132.81,49.09z"/>
			<path class="st1" d="M125.19,190c0,2.9,0,5.78,0,8.65c-0.18,0.02-0.37,0.04-0.55,0.06c-0.36-1.83-0.58-3.7-1.13-5.49
				C122.99,191.54,123.62,190.61,125.19,190z"/>
			<path class="st3" d="M133.79,91.32l0.15-0.03c1.05-0.53,2.09-1.06,3.27-1.66c0.2,0.96,0.37,1.76,0.67,3.18
				C136.28,92.23,135.03,91.78,133.79,91.32z"/>
			<path class="st3" d="M129.36,19.48c-0.76,0-1.52,0-2.27,0c-0.1-0.12-0.19-0.24-0.29-0.37c0.49-0.43,0.99-1.19,1.48-1.18
				c0.49,0,0.97,0.77,1.46,1.21C129.62,19.25,129.49,19.36,129.36,19.48z"/>
			<path class="st1" d="M123.7,28.24c0.04-2.46,2.11-4.3,4.83-4.3c2.85,0,4.86,1.78,4.81,4.25c-0.06,2.86-1.91,4.58-4.88,4.56
				C125.6,32.73,123.66,30.89,123.7,28.24z"/>
		</g>
		<g>
			<path class="st1" d="M195.19,76.13l-0.71,125.55l-52.25-42.28c-0.02-2.84-0.67-5.59-1.44-8.2c0.25-0.16,0.48-0.41,0.6-0.81
				c0.1-0.33,0.22-0.67,0.33-1.01c0.37-1.07,0.79-2.28,0.78-3.54c-0.01-1.95-0.15-3.9-0.28-5.79c-0.11-1.5-0.21-3.04-0.26-4.56
				c-0.07-2.43-0.05-4.93-0.04-7.34c0.01-1.12,0.01-2.23,0.01-3.35l0-1.59l-0.54,0.04c0.21-0.56,0.34-1.11,0.41-1.65l21.71,17.57
				l0.22-38.05c0.97-0.01,1.85-0.1,2.52-0.74c0.76-0.72,0.83-1.75,0.85-2.65c0.01-0.39-0.02-0.75-0.06-1.21
				c-0.02-0.21-0.03-0.43-0.05-0.7l-0.22-3.41l-0.14,0.15c-0.04-0.85-0.41-1.59-1.04-2.04c-0.32-0.22-0.92-0.52-1.8-0.43l0.08-14.12
				L195.19,76.13z"/>
			<path class="st1" d="M118.72,115.09c-0.33,0.9-0.33,1.88-0.34,2.63c-0.03,5.08-0.15,10.25-0.27,15.25
				c-0.05,2.26-0.1,4.52-0.15,6.79l-25.73-20.82l-0.36,63.2l-31.3-0.18L61.3,56.42l43.48,35.18c-0.45-0.04-0.89-0.09-1.33-0.15
				c-0.58-0.08-1.13-0.07-1.76-0.05c-0.29,0.01-0.62,0.02-0.98,0.02l-3.14,0l2.01,2.41c0.3,0.37,0.41,0.94,0.53,1.6
				c0.23,1.23,0.6,3.18,2.92,3.98l0.43,2.12l1.25-0.04c4.49-0.15,8.61,0.13,12.53,0.86l0.03,0.28c0.33,3.51,0.64,6.84,0.95,10.2
				l0.21,2.26L118.72,115.09z"/>
		</g>
	</g>
</g>
</svg>
